HIERARCHY
ROOT Hips
{
	OFFSET -0.001795 -0.223333 0.028219
	CHANNELS 6 Xposition Yposition Zposition Zrotation Yrotation Xrotation 
	JOINT LeftUpLeg
	{
		OFFSET 0.069520 -0.091406 -0.006815
		CHANNELS 3 Zrotation Yrotation Xrotation
		JOINT LeftLeg
		{
			OFFSET 0.034277 -0.375199 -0.004496
			CHANNELS 3 Zrotation Yrotation Xrotation
			JOINT LeftFoot
			{
				OFFSET -0.013596 -0.397961 -0.043693
				CHANNELS 3 Zrotation Yrotation Xrotation
				JOINT LeftToe
				{
					OFFSET 0.026358 -0.055791 0.119288
					CHANNELS 3 Zrotation Yrotation Xrotation
					End Site
					{
						OFFSET 0.000000 0.000000 0.000000
					}
				}
			}
		}
	}
	JOINT RightUpLeg
	{
		OFFSET -0.067670 -0.090522 -0.004320
		CHANNELS 3 Zrotation Yrotation Xrotation
		JOINT RightLeg
		{
			OFFSET -0.038290 -0.382569 -0.008850
			CHANNELS 3 Zrotation Yrotation Xrotation
			JOINT RightFoot
			{
				OFFSET 0.015774 -0.398415 -0.042312
				CHANNELS 3 Zrotation Yrotation Xrotation
				JOINT RightToe
				{
					OFFSET -0.025372 -0.048144 0.123348
					CHANNELS 3 Zrotation Yrotation Xrotation
					End Site
					{
						OFFSET 0.000000 0.000000 0.000000
					}
				}
			}
		}
	}
	JOINT Spine
	{
		OFFSET -0.002533 0.108963 -0.026696
		CHANNELS 3 Zrotation Yrotation Xrotation
		JOINT Spine1
		{
			OFFSET 0.005487 0.135180 0.001092
			CHANNELS 3 Zrotation Yrotation Xrotation
			JOINT Spine2
			{
				OFFSET 0.001457 0.052922 0.025425
				CHANNELS 3 Zrotation Yrotation Xrotation
				JOINT Neck
				{
					OFFSET -0.002778 0.213870 -0.042857
					CHANNELS 3 Zrotation Yrotation Xrotation
					JOINT Head
					{
						OFFSET 0.005152 0.064970 0.051349
						CHANNELS 3 Zrotation Yrotation Xrotation
						End Site
						{
							OFFSET 0.000000 0.000000 0.000000
						}
					}
				}
				JOINT LeftShoulder
				{
					OFFSET 0.078845 0.121749 -0.034090
					CHANNELS 3 Zrotation Yrotation Xrotation
					JOINT LeftArm
					{
						OFFSET 0.090977 0.030469 -0.008868
						CHANNELS 3 Zrotation Yrotation Xrotation
						JOINT LeftForeArm
						{
							OFFSET 0.259612 -0.012772 -0.027456
							CHANNELS 3 Zrotation Yrotation Xrotation
							JOINT LeftHand
							{
								OFFSET 0.249234 0.008986 -0.001171
								CHANNELS 3 Zrotation Yrotation Xrotation
								End Site
								{
									OFFSET 0.000000 0.000000 0.000000
								}
							}
						}
					}
				}
				JOINT RightShoulder
				{
					OFFSET -0.081759 0.118833 -0.038615
					CHANNELS 3 Zrotation Yrotation Xrotation
					JOINT RightArm
					{
						OFFSET -0.096012 0.032551 -0.009143
						CHANNELS 3 Zrotation Yrotation Xrotation
						JOINT RightForeArm
						{
							OFFSET -0.253742 -0.013329 -0.021401
							CHANNELS 3 Zrotation Yrotation Xrotation
							JOINT RightHand
							{
								OFFSET -0.255298 0.007772 -0.005559
								CHANNELS 3 Zrotation Yrotation Xrotation
								End Site
								{
									OFFSET 0.000000 0.000000 0.000000
								}
							}
						}
					}
				}
			}
		}
	}
}
MOTION
Frames: 9
Frame Time: 0.050000
0.000000 0.920965 0.000000 -1.428688 3.056444 0.129433 10.209719 -0.221678 -4.902999 -7.801975 1.030408 7.721374 5.744250 12.730889 4.084396 0.000000 0.000000 0.000000 -7.416620 0.303978 -5.334254 6.129415 -0.908214 10.652466 -4.175227 -11.463994 4.985310 0.000000 0.000000 0.000000 -0.405409 -0.869419 19.910180 3.765846 -0.293062 -23.277470 0.113554 0.841432 24.411252 -0.316208 2.348131 -29.450625 0.000000 0.000000 0.000000 -32.085322 -4.030314 -0.690737 -39.326741 -12.149872 -2.372068 -17.209515 -28.746210 5.624187 0.000000 0.000000 0.000000 23.675873 7.541464 3.950495 46.274411 9.674506 -3.201573 7.868984 25.864159 2.810234 0.000000 0.000000 0.000000 
0.022954 0.922149 -0.000194 -1.644553 2.884436 -0.051078 9.097749 -0.212093 -3.004809 -8.258721 1.015048 4.875770 5.861020 12.770722 3.259584 0.000000 0.000000 0.000000 -8.542705 0.312290 -7.263309 5.719755 -0.889941 14.342624 -3.850341 -11.178141 7.374249 0.000000 0.000000 0.000000 -0.465673 -0.944002 21.681730 3.771923 -0.272385 -23.786789 0.335691 0.944702 23.266718 -0.593184 2.542504 -30.724920 0.000000 0.000000 0.000000 -31.627038 -2.908745 -1.461779 -40.014856 -13.667301 -1.854359 -19.448851 -28.122354 6.063125 0.000000 0.000000 0.000000 22.831598 7.527563 3.851440 48.093022 9.971203 -3.039751 7.597377 26.578915 2.863080 0.000000 0.000000 0.000000 
0.042678 0.923383 -0.000344 -1.659957 4.117307 -1.696621 8.653734 -0.186178 -1.613568 -9.658963 1.199175 5.359733 5.247958 11.469907 2.620625 0.000000 0.000000 0.000000 -8.829070 0.267066 -9.343689 5.187953 -0.995910 22.199745 -5.293867 -14.243078 9.317486 0.000000 0.000000 0.000000 -1.359083 -0.921771 23.655457 4.921501 -0.491946 -24.785330 -0.437749 -0.363422 24.533372 -1.987080 3.216725 -32.678346 0.000000 0.000000 0.000000 -31.453247 -3.542595 -0.662930 -39.110703 -15.737130 -1.422118 -19.857056 -31.038215 6.893836 0.000000 0.000000 0.000000 21.505235 8.180231 4.002620 48.872541 10.256510 -3.003474 7.151977 29.977743 3.183243 0.000000 0.000000 0.000000 
0.057161 0.925920 0.001424 -2.016038 3.585734 -3.111731 8.337030 -0.116026 0.155045 -10.125636 1.289271 5.411948 5.280156 11.574865 2.839223 0.000000 0.000000 0.000000 -8.731422 0.282293 -10.665044 6.821577 -1.611580 25.431869 -9.663790 -22.148449 15.431332 0.000000 0.000000 0.000000 -2.457412 -0.755847 25.747737 5.425620 -0.575161 -25.738251 0.351824 -1.822591 24.743386 -3.232120 3.570405 -33.598884 0.000000 0.000000 0.000000 -31.930787 -2.997048 -0.256584 -38.406304 -16.882666 -1.333860 -21.182926 -35.000395 8.426021 0.000000 0.000000 0.000000 20.194734 9.556111 4.188048 48.325365 8.917396 -3.400144 9.012110 35.116893 4.292032 0.000000 0.000000 0.000000 
0.067297 0.929169 0.005055 -2.642270 4.210213 -4.232501 7.715673 -0.051424 2.699860 -8.883645 1.013365 3.370804 4.847291 10.809203 3.063190 0.000000 0.000000 0.000000 -7.035589 0.446884 -12.096268 11.019733 -2.871988 21.707590 -15.072987 -31.144950 13.659123 0.000000 0.000000 0.000000 -2.551792 -0.843166 26.985211 6.041220 -0.740372 -25.545960 0.035255 -2.835743 24.501505 -3.871709 3.788824 -34.168141 0.000000 0.000000 0.000000 -31.794381 -3.828699 0.614485 -38.121725 -17.623427 -1.175437 -20.749771 -41.048846 9.943495 0.000000 0.000000 0.000000 17.932894 8.818365 3.524688 49.584826 8.174001 -3.670789 12.174835 40.097209 6.123235 0.000000 0.000000 0.000000 
0.073788 0.930798 0.009956 -2.767711 3.409782 -4.643965 7.603134 0.018733 4.909867 -9.239618 0.980074 1.080389 4.909493 11.091620 3.741962 0.000000 0.000000 0.000000 -4.705680 0.808923 -14.045629 13.962240 -3.092915 15.311889 -9.037541 -21.779777 3.780502 0.000000 0.000000 0.000000 -2.982006 -0.726419 27.925964 6.412449 -0.763129 -26.639054 -0.204682 -3.564804 24.847175 -3.077673 3.216607 -33.967389 0.000000 0.000000 0.000000 -30.809331 -3.490626 0.959951 -39.435675 -18.674059 -1.038477 -20.664683 -46.888315 11.762373 0.000000 0.000000 0.000000 16.992275 8.799182 3.230468 49.618325 7.725228 -3.862014 15.416193 45.195134 8.274850 0.000000 0.000000 0.000000 
0.077203 0.931117 0.016330 -3.112336 2.734049 -4.348427 7.251759 0.064581 5.695739 -8.416086 0.866280 0.040200 5.240612 11.675983 3.651457 0.000000 0.000000 0.000000 -1.881123 1.217223 -14.724280 14.316252 -2.485905 8.661738 -3.767250 -10.012553 2.323802 0.000000 0.000000 0.000000 -2.745399 -0.730474 27.739794 6.602829 -0.874387 -25.792657 -0.900481 -3.763931 23.112800 -2.877893 3.010871 -32.281004 0.000000 0.000000 0.000000 -29.484568 -3.142724 0.861726 -40.046522 -19.145317 -0.740973 -22.470378 -51.868309 14.197041 0.000000 0.000000 0.000000 17.197069 8.868338 3.081877 50.740624 7.772709 -3.684851 16.378197 47.915529 9.192319 0.000000 0.000000 0.000000 
0.078524 0.929984 0.024855 -2.941372 2.247858 -4.491746 6.276338 0.181050 7.108617 -7.200146 0.724410 -0.989044 5.536948 12.129376 3.213426 0.000000 0.000000 0.000000 0.152343 1.465830 -14.638269 12.611389 -1.929982 6.213748 -1.906700 -5.702520 2.479953 0.000000 0.000000 0.000000 -2.808251 -0.684635 27.978375 6.586590 -0.854097 -26.093834 -1.245266 -3.341824 23.020540 -2.252897 2.686173 -30.882785 0.000000 0.000000 0.000000 -28.904973 -4.216635 1.522173 -39.923006 -20.041594 -0.437312 -23.655278 -54.509518 15.667368 0.000000 0.000000 0.000000 18.391334 8.831941 3.098332 49.690088 7.908674 -3.571260 17.360488 50.142579 10.185927 0.000000 0.000000 0.000000 
0.079394 0.928560 0.035689 -2.605178 2.444028 -4.566265 5.187791 0.299492 8.226622 -5.916080 0.592455 -1.522940 5.585620 12.090211 2.615770 0.000000 0.000000 0.000000 1.520017 1.498354 -13.443003 9.693997 -1.405504 5.750074 -2.024700 -5.572004 1.240529 0.000000 0.000000 0.000000 -2.789326 -0.688145 27.694368 6.157126 -0.737818 -26.258436 -1.608552 -3.783288 22.822273 -1.854796 2.388487 -29.677681 0.000000 0.000000 0.000000 -28.688366 -4.715174 1.959117 -39.232014 -21.644477 0.034145 -24.213765 -54.616028 15.998790 0.000000 0.000000 0.000000 18.797510 8.868823 3.019598 49.869742 6.626869 -4.044170 17.405240 52.313577 10.681910 0.000000 0.000000 0.000000 
